<?xml version="1.0" encoding="utf-8"?>
<!-- Generator: Adobe Illustrator 16.0.0, SVG Export Plug-In . SVG Version: 6.00 Build 0)  -->
<!DOCTYPE svg PUBLIC "-//W3C//DTD SVG 1.1//EN" "http://www.w3.org/Graphics/SVG/1.1/DTD/svg11.dtd">
<svg version="1.1" id="Ebene_1" xmlns="http://www.w3.org/2000/svg" xmlns:xlink="http://www.w3.org/1999/xlink" x="0px" y="0px"
	 width="128px" height="32px" viewBox="0.5 16.5 128 32" enable-background="new 0.5 16.5 128 32" xml:space="preserve">
<polygon fill="#B4BDB4" points="38.5,18.5 46.5,18.5 46.5,46.411 38.5,46.5 "/>
<polygon fill="#B4BDB4" points="50.5,18.5 58.5,18.5 58.5,46.411 50.5,46.5 "/>
<polygon fill="#B4BDB4" points="4.5,18.5 28.5,32.5 4.5,46.5 "/>
<polygon fill="#B4BDB4" points="68.5,18.5 74.5,18.5 74.5,46.411 68.5,46.5 "/>
<polygon fill="#B4BDB4" points="92.5,18.5 76.5,32.5 92.5,46.5 "/>
<path fill="#B4BDB4" d="M110.5,18.5c-4.418,0-8,3.582-8,8v6c0,4.418,3.582,8,8,8s8-3.582,8-8v-6
	C118.5,22.082,114.918,18.5,110.5,18.5z"/>
<path fill="none" stroke="#B4BDB4" stroke-width="2" stroke-linecap="round" stroke-linejoin="round" stroke-miterlimit="10" d="
	M100.5,34.5c2,8,8,8,10,8s8,0,10-8"/>
<line fill="none" stroke="#B4BDB4" stroke-width="2" stroke-linecap="round" stroke-linejoin="round" stroke-miterlimit="10" x1="110.5" y1="42.5" x2="110.5" y2="46.547"/>
</svg>
