<?xml version="1.0" encoding="utf-8"?>
<!-- Generator: Adobe Illustrator 16.0.0, SVG Export Plug-In . SVG Version: 6.00 Build 0)  -->
<!DOCTYPE svg PUBLIC "-//W3C//DTD SVG 1.1//EN" "http://www.w3.org/Graphics/SVG/1.1/DTD/svg11.dtd">
<svg version="1.1" id="Ebene_1" xmlns="http://www.w3.org/2000/svg" xmlns:xlink="http://www.w3.org/1999/xlink" x="0px" y="0px"
	 width="224px" height="32px" viewBox="0.5 16.5 224 32" enable-background="new 0.5 16.5 224 32" xml:space="preserve">
<polygon fill="#B4BDB4" points="38.5,18.5 46.5,18.5 46.5,46.411 38.5,46.5 "/>
<polygon fill="#B4BDB4" points="50.5,18.5 58.5,18.5 58.5,46.411 50.5,46.5 "/>
<polygon fill="#B4BDB4" points="4.5,18.5 28.5,32.5 4.5,46.5 "/>
<polygon fill="#B4BDB4" points="68.5,18.5 74.5,18.5 74.5,46.411 68.5,46.5 "/>
<polygon fill="#B4BDB4" points="92.5,18.5 76.5,32.5 92.5,46.5 "/>
<path fill="#B4BDB4" d="M110.5,18.5c-4.418,0-8,3.582-8,8v6c0,4.418,3.582,8,8,8s8-3.582,8-8v-6
	C118.5,22.082,114.918,18.5,110.5,18.5z"/>
<path fill="none" stroke="#B4BDB4" stroke-width="2" stroke-linecap="round" stroke-linejoin="round" stroke-miterlimit="10" d="
	M100.5,34.5c2,8,8,8,10,8s8,0,10-8"/>
<line fill="none" stroke="#B4BDB4" stroke-width="2" stroke-linecap="round" stroke-linejoin="round" stroke-miterlimit="10" x1="110.5" y1="42.5" x2="110.5" y2="46.547"/>
<path fill="none" stroke="#B4BDB4" stroke-width="2" stroke-linecap="round" stroke-linejoin="round" stroke-miterlimit="10" d="
	M132.5,32.5c0,0,0-4,6-4s6,8,12,8s6-4,6-4"/>
<rect x="164.5" y="36.5" fill="#B4BDB4" width="2" height="2"/>
<rect x="181.5" y="26.5" fill="#B4BDB4" width="2" height="12"/>
<rect x="186.5" y="34.5" fill="#B4BDB4" width="2" height="4"/>
<rect x="168.5" y="34.5" fill="#B4BDB4" width="2" height="4"/>
<rect x="176.5" y="32.5" fill="#B4BDB4" width="2" height="6"/>
<rect x="172.5" y="36.5" fill="#B4BDB4" width="2" height="2"/>
<path fill="#B4BDB4" d="M216.5,38.5c0,1.105,4,2-8,2s-8-0.895-8-2s-4-2,8-2S216.5,37.395,216.5,38.5z"/>
<path fill="#B4BDB4" d="M220.5,34.5c0,1.105,4,1.875-12,2s-12-0.895-12-2s-4-2,12-2S220.5,33.395,220.5,34.5z"/>
<path fill="#B4BDB4" d="M215.5,30.5c0,1.105,5,2-7,2s-7-0.895-7-2s-5-2,7-2S215.5,29.395,215.5,30.5z"/>
<path fill="#B4BDB4" d="M217.5,26.5c0,1.105,5,2-9,2c-12,0-9-0.895-9-2s-3-2,9-2C222.5,24.5,217.5,25.395,217.5,26.5z"/>
</svg>
